<?xml version="1.0" standalone="no"?><!DOCTYPE svg PUBLIC "-//W3C//DTD SVG 1.1//EN" "http://www.w3.org/Graphics/SVG/1.1/DTD/svg11.dtd"><svg t="1760799076024" class="icon" viewBox="0 0 1024 1024" version="1.1" xmlns="http://www.w3.org/2000/svg" p-id="14122" xmlns:xlink="http://www.w3.org/1999/xlink" width="256" height="256"><path d="M669.267053 68.040002c33.316115-1.455513 60.101326 11.152629 80.336731 37.80552a512.416024 512.416024 0 0 1 37.80552 85.062421 1728.657422 1728.657422 0 0 0 51.982591 330.798304c-25.206831 233.137193-154.369391 362.299754-387.506585 387.506584C169.128372 870.660652 44.68205 709.98719 78.555796 427.192446a765.268796 765.268796 0 0 1 33.07983-89.788111A1419.899737 1419.899737 0 0 1 78.555796 134.199663c13.827369-22.541542 34.30851-31.992922 61.433971-28.354141 54.090248 10.500483 102.925529 32.560004 146.496391 66.159661 91.045145-37.994548 183.980565-44.298619 278.815714-18.90276a676.926746 676.926746 0 0 0 103.965181-85.062421z" fill="#DE8607" opacity=".874" p-id="14123"></path><path d="M262.857708 200.359323l-75.611041 66.159661c-24.488526 7.126341-41.812906 22.881791-51.98259 47.256901A1057.0329 1057.0329 0 0 0 102.184246 157.828113a37.266792 37.266792 0 0 1 9.45138-18.90276c60.205291-2.958282 110.609501 17.522859 151.222082 61.43397z" fill="#FED646" p-id="14124"></path><path d="M603.107392 181.456563c7.46659 8.515693 16.91797 14.819764 28.35414 18.90276-4.092448 25.471469-16.691137 45.95261-37.80552 61.433971 5.292773 14.800861-1.001846 27.399551-18.90276 37.80552-29.677334 22.021716-59.600403 36.198786-89.788111 42.531211-23.42052-8.950457-45.480041-8.950457-66.159661 0-19.441489-13.780112-39.92263-21.653112-61.433971-23.62845a89.485667 89.485667 0 0 1-14.17707-23.628451l-9.45138 9.45138-9.45138-28.35414-9.45138 9.45138c-24.923289-22.078424-35.943599-47.285255-33.079831-75.611041 95.770835-54.770748 195.010326-61.074818 297.718474-18.90276a104.948125 104.948125 0 0 0 23.62845-9.45138z" fill="#FEE381" p-id="14125"></path><path d="M262.857708 200.359323l18.90276 9.45138c-2.863768 28.325786 8.156541 53.532617 33.079831 75.611041l9.45138-9.45138 9.45138 28.35414 9.45138-9.45138c3.534816 8.657464 8.260506 16.539915 14.17707 23.628451 21.511341 1.975338 41.992482 9.848338 61.433971 23.62845 20.67962-8.950457 42.739141-8.950457 66.159661 0 30.187708-6.332425 60.110777-20.509495 89.788111-42.531211 17.900914-10.40597 24.195533-23.004659 18.90276-37.80552 21.114383-15.481361 33.713073-35.962501 37.80552-61.433971 10.443775 10.396518 23.042465 16.700589 37.805521 18.90276 36.520133 39.346095 68.021583 83.455686 94.513801 132.319322-6.341876 12.731009-6.341876 23.76077 0 33.07983-49.959995 35.584446-87.765516 74.968347-113.416561 118.142252 10.235845-43.769341-5.519606-72.123482-47.256901-85.062421-45.95261-38.939686-99.513581-56.273517-160.673462-51.982591-37.351854 24.223887-46.803234 57.303718-28.35414 99.239491v18.902761a529.248932 529.248932 0 0 1-94.513801-28.354141c20.95371-49.487426 5.198259-77.841567-47.256901-85.062421a853.176082 853.176082 0 0 0-113.416561 42.531211c-20.188148 8.279409-32.786838 22.456479-37.80552 42.53121 0 6.304071-3.14731 9.45138-9.451381 9.45138v-28.35414c0.217382-22.9385 4.943072-44.988569 14.177071-66.159661a962.717578 962.717578 0 0 0 61.43397-103.965181l75.611041-66.159661z" fill="#FEDF72" p-id="14126"></path><path d="M669.267053 219.262083c-14.763056-2.202172-27.361745-8.506242-37.805521-18.90276-11.43617-4.082996-20.88755-10.387067-28.35414-18.90276a1165.44023 1165.44023 0 0 0 66.159661-80.336731c16.908519-4.914718 32.66397-1.767408 47.2569 9.45138 43.703182 61.027561 61.037013 128.765603 51.982591 203.204673-20.859196-37.833875-33.457886-78.786705-37.80552-122.867942a341.93203 341.93203 0 0 0-37.805521-66.159661 518.644483 518.644483 0 0 1-23.62845 94.513801z" fill="#FDD344" p-id="14127"></path><path d="M603.107392 417.741066c-73.569543-23.600096-136.572443-7.844645-189.027602 47.2569-18.449094-41.935774-8.997714-75.015604 28.35414-99.239491 61.159881-4.290927 114.720852 13.042905 160.673462 51.982591z" fill="#FCF5E3" p-id="14128"></path><path d="M319.565989 455.546586c-6.304071 0-9.45138 3.14731-9.45138 9.45138-60.914145-45.791937-123.917045-48.939246-189.027602-9.45138 5.018683-20.074731 17.617373-34.251802 37.80552-42.53121a853.176082 853.176082 0 0 1 113.416561-42.531211c52.45516 7.220854 68.21061 35.574995 47.256901 85.062421z" fill="#FBF4E2" p-id="14129"></path><path d="M603.107392 417.741066c41.737295 12.938939 57.492745 41.29308 47.256901 85.062421l-18.902761 28.35414c-9.375769-1.625637-15.670388 1.531124-18.90276 9.45138-12.201732-2.239977-21.653112 0.907332-28.35414 9.45138h-28.35414c-66.594424 15.500263-113.851325-6.549806-141.770702-66.15966v-18.902761c52.45516-55.101546 115.458059-70.856997 189.027602-47.2569z" fill="#924011" p-id="14130"></path><path d="M480.239451 427.192446c22.276903-1.540575 44.326973 0.028354 66.15966 4.72569-33.949357 28.070599-37.096667 59.5815-9.45138 94.513801-37.852777 10.377615-70.932608 2.504616-99.239491-23.62845-4.423246-35.111877 9.753824-60.309256 42.531211-75.611041z" fill="#FBF7F5" p-id="14131"></path><path d="M763.780854 351.581405c44.166299 66.528265 56.77444 138.982545 37.80552 217.381743a508.815048 508.815048 0 0 0-170.124842-37.805521l18.902761-28.35414c25.651046-43.173904 63.456566-82.557805 113.416561-118.142252-6.341876-9.319061-6.341876-20.348821 0-33.07983z" fill="#FEDA5A" p-id="14132"></path><path d="M310.114609 464.997966c6.842799 46.302311-12.059961 74.656451-56.708281 85.062421-19.03508 1.020749-34.781079-5.27387-47.2569-18.90276-14.970986-32.191401-11.814225-62.11447 9.45138-89.788111-22.80618-4.574468-44.85625-1.417707-66.159661 9.45138-12.504176 7.712326-18.808246 18.742087-18.90276 33.079831l-18.902761 18.90276v-37.805521c6.304071 0 9.45138-3.14731 9.451381-9.45138 65.110558-39.487866 128.113457-36.340557 189.027602 9.45138z" fill="#8C3806" p-id="14133"></path><path d="M565.301872 436.643826c13.96914-2.476262 26.567829 0.671048 37.80552 9.45138l-18.90276 9.45138c-11.464524-2.334491-17.768595-8.638561-18.90276-18.90276z" fill="#EFE3DC" p-id="14134"></path><path d="M206.149428 531.157627c-43.287321 16.936873-68.494152 1.190874-75.611041-47.2569 0.094514-14.337744 6.398584-25.367504 18.90276-33.079831 21.303411-10.869087 43.353481-14.025848 66.159661-9.45138-21.265605 27.673641-24.422366 57.59671-9.45138 89.788111z" fill="#F6EFEB" p-id="14135"></path><path d="M225.052188 446.095206h28.35414v28.35414h-28.35414v-28.35414z" fill="#EDDDD6" p-id="14136"></path><path d="M111.635626 436.643826v66.159661c34.289607 54.24147 81.546508 69.98747 141.770702 47.2569 44.64832-10.40597 63.55108-38.76011 56.708281-85.062421 0-6.304071 3.14731-9.45138 9.45138-9.45138a529.248932 529.248932 0 0 0 94.513801 28.354141c27.919377 59.609854 75.176277 81.659924 141.770702 66.15966a1190.278457 1190.278457 0 0 0-103.965182 80.336731c-14.413355 9.536443-30.168805 14.262133-47.2569 14.17707-19.914058-20.329919-45.120889-29.781299-75.611041-28.35414-33.193247-3.960128-55.252768 8.638561-66.159661 37.805521a962.717578 962.717578 0 0 1-103.965181-61.433971 174.245644 174.245644 0 0 0-56.708281-4.72569c-14.24323-52.530771-11.09592-102.944432 9.45138-151.222082z" fill="#FEDA5B" p-id="14137"></path><path d="M130.538387 483.900727c7.116889 48.447774 32.32372 64.193774 75.611041 47.2569 12.475822 13.62889 28.221821 19.923509 47.2569 18.90276-60.224194 22.730569-107.481095 6.98457-141.770702-47.2569l18.902761-18.90276z" fill="#A65E27" p-id="14138"></path><path d="M555.850492 550.060387h28.35414c29.17641 2.32504 55.95217 11.77642 80.336731 28.354141 16.50211 36.274397 24.384561 72.510988 23.62845 108.690871-57.530551 74.448521-133.141592 110.675661-226.833123 108.690871-78.399198 22.116229-157.157548 22.116229-236.284502 0-65.025495-54.354887-105.987777-123.661857-122.867942-207.930362a174.245644 174.245644 0 0 1 56.708281 4.72569 962.717578 962.717578 0 0 0 103.965181 61.433971c15.40575 31.151749 37.455819 56.35858 66.159661 75.61104-28.48646 34.346315-61.56629 37.493625-99.239491 9.451381-5.831502 8.978811-4.253121 16.842359 4.72569 23.62845l37.80552 18.90276a855.312094 855.312094 0 0 0 179.576222 0c37.720458-15.311236 55.044838-42.096447 51.982591-80.336731-3.761649 25.82117-17.938719 43.14555-42.531211 51.982591a238.637896 238.637896 0 0 1-94.513801 0c-14.479514-6.615966-23.930894-17.636275-28.35414-33.079831 35.754571-13.676147 57.814092-38.882978 66.159661-75.611041 17.088095 0.085062 32.843546-4.640628 47.2569-14.17707a1190.278457 1190.278457 0 0 1 103.965182-80.336731z" fill="#FDF9EC" p-id="14139"></path><path d="M612.558772 540.609007c3.232372-7.920257 9.526991-11.077017 18.90276-9.45138a508.815048 508.815048 0 0 1 170.124842 37.805521c-7.305917 68.078291-32.512748 127.933881-75.61104 179.576222 16.965227-39.969886 27.985537-80.922716 33.07983-122.867942L678.718433 545.334697a235.707969 235.707969 0 0 0-66.159661-4.72569z" fill="#FEF0C2" p-id="14140"></path><path d="M404.62841 644.574188c-8.345569 36.728063-30.40509 61.934894-66.159661 75.611041 4.423246 15.443555 13.874626 26.463864 28.35414 33.079831 31.50145 6.304071 63.012351 6.304071 94.513801 0 24.592491-8.83704 38.769561-26.16142 42.531211-51.982591 3.062247 38.240284-14.262133 65.025495-51.982591 80.336731a855.312094 855.312094 0 0 1-179.576222 0l-37.80552-18.90276c-8.978811-6.786091-10.557192-14.649639-4.72569-23.62845 37.673201 28.042245 70.753031 24.894935 99.239491-9.451381-28.703841-19.252461-50.753911-44.459292-66.159661-75.61104 10.906893-29.166959 32.966414-41.765649 66.159661-37.805521 30.490152-1.427158 55.696983 8.024222 75.611041 28.35414z" fill="#933E0C" p-id="14141"></path><path d="M584.204632 550.060387c6.701028-8.544048 16.152409-11.691357 28.35414-9.45138 22.276903-1.540575 44.326973 0.028354 66.159661 4.72569l80.336731 80.336731c-5.094294 41.945225-16.114603 82.898055-33.07983 122.867942a8451.017684 8451.017684 0 0 1-189.027603 66.15966c-60.725117 28.165113-123.737468 34.469183-189.027602 18.902761-9.101679 4.442149-9.101679 10.736768 0 18.90276h-18.90276c-39.270484-11.738614-73.928695-30.641374-103.965181-56.708281 79.126954 22.116229 157.885305 22.116229 236.284502 0 93.691531 1.98479 169.302572-34.24235 226.833123-108.690871 0.75611-36.179883-7.126341-72.416474-23.62845-108.690871-24.384561-16.577721-51.160321-26.029101-80.336731-28.354141z" fill="#FEF6DA" p-id="14142"></path><path d="M725.975334 748.53937c-74.476875 84.466984-168.990676 128.567124-283.541404 132.319321-41.066247-0.812819-78.871767-10.264199-113.416561-28.35414h18.90276c40.603129 9.101679 81.56541 10.68006 122.867942 4.72569 26.057455-8.865395 48.107525-23.042465 66.15966-42.531211a8451.017684 8451.017684 0 0 0 189.027603-66.15966z" fill="#FEEEBD" p-id="14143"></path><path d="M536.947731 814.69903c-18.052136 19.488746-40.102206 33.665816-66.15966 42.531211-41.302531 5.954369-82.264812 4.375989-122.867942-4.72569-9.101679-8.165992-9.101679-14.460612 0-18.90276 65.290134 15.566423 128.302485 9.262353 189.027602-18.902761z" fill="#E29F3C" p-id="14144"></path></svg>